<svg xmlns="http://www.w3.org/2000/svg" viewBox="0 0 64 64"><g data-name="Color copy 2"><path fill="#a8dba8" d="M32 3v29H3A29 29 0 0 1 32 3Z"/><path fill="#cff09e" d="M3 32a29 29 0 0 0 49.507 20.507L32 32Z"/><path fill="#79bd9a" d="M32 3v29l20.507 20.507A29 29 0 0 0 32 3zM19 26h4a4 4 0 0 1 4 4v2H15v-2a4 4 0 0 1 4-4z"/><path fill="#fff" d="M25 18h-8v4a4 4 0 0 0 4 4 4 4 0 0 0 4-4Z"/><path fill="#cff09e" d="M20 21a3.983 3.983 0 0 0 3.66 3.98A3.95 3.95 0 0 1 21 26a4 4 0 0 1-4-4v-4h8v1h-3a2.006 2.006 0 0 0-2 2Z"/><path fill="#79bd9a" d="M21 14h-4v4h8a4 4 0 0 0-4-4Z"/><path fill="#a8dba8" d="m32 32 20.507 20.507a29.017 29.017 0 0 0 6.326-31.515Z"/><path fill="#fff" d="M46 15h-8v4a4 4 0 0 0 4 4 4 4 0 0 0 4-4Z"/><path fill="#a8dba8" d="M42 11a4 4 0 0 0-4 4h8a4 4 0 0 0-4-4zm5.719 14.551A3.992 3.992 0 0 0 44 23h-4a4 4 0 0 0-4 4v3.359z"/><path fill="#cff09e" d="M41 18a3.983 3.983 0 0 0 3.66 3.98A3.95 3.95 0 0 1 42 23a4 4 0 0 1-4-4v-4h8v1h-3a2.006 2.006 0 0 0-2 2Z"/><path fill="#a8dba8" d="M34 46v15h-2a28.777 28.777 0 0 1-14-3.6V46a8 8 0 0 1 16 0Z"/><path fill="#79bd9a" d="M34 57v4h-2a28.777 28.777 0 0 1-14-3.6V57a6 6 0 0 1 6-6h4a6 6 0 0 1 6 6Z"/><path fill="#fff" d="M30 45h-.172A6.826 6.826 0 0 1 25 43a3 3 0 0 0-3 3v1a4 4 0 0 0 4 4 4 4 0 0 0 4-4Z"/><path fill="#cff09e" d="M30 45v2h-.17A6.835 6.835 0 0 1 25 45a3 3 0 0 0-1 .18V46a4 4 0 0 0 4 4 2.971 2.971 0 0 0 .73-.08A4 4 0 0 1 22 47v-1a3 3 0 0 1 3-3 6.835 6.835 0 0 0 4.83 2Z"/><path fill="#79bd9a" d="M54 31a2.97 2.97 0 0 0-1.47.4A2.992 2.992 0 0 0 50 30a2.948 2.948 0 0 0-1.667.519A1.992 1.992 0 0 0 45 32a1.992 1.992 0 0 0-1.31 3.5A1.978 1.978 0 0 0 43 37a1.982 1.982 0 0 0 2.675 1.875 2.977 2.977 0 0 0 5.131-.842 2.981 2.981 0 0 0 5.17-1.791A2.989 2.989 0 0 0 54 31Z"/><path fill="#fff" d="M52 36a1.985 1.985 0 0 1-1.357-.539 1.469 1.469 0 0 1-1.827.367A2 2 0 0 1 47 37v2a3 3 0 0 0 6 0v-3.277A1.987 1.987 0 0 1 52 36Z"/><path fill="#79bd9a" d="M56 46v2.29a28.767 28.767 0 0 1-3.49 4.22l-8.15-8.15A3.988 3.988 0 0 1 48 42h4a4 4 0 0 1 4 4Z"/><path fill="#cff09e" d="M48 37.72V38a2.992 2.992 0 0 0 4.57 2.55A3 3 0 0 1 47 39v-2a2 2 0 0 0 1.82-1.17 1.52 1.52 0 0 0 .68.17 1.468 1.468 0 0 0 1.14-.54 1.959 1.959 0 0 0 2.36.26v1a1.959 1.959 0 0 1-2.36-.26 1.468 1.468 0 0 1-1.14.54 1.52 1.52 0 0 1-.68-.17 2.135 2.135 0 0 1-.82.89Z"/></g><path fill="#3b8686" d="M53.264 53.139a30.04 30.04 0 1 0-.125.125c.024-.02.053-.028.075-.05s.03-.051.05-.075ZM45.615 44.2A2.984 2.984 0 0 1 48 43h4a3 3 0 0 1 3 3v1.942a28.264 28.264 0 0 1-2.52 3.124Zm-.278-6.267A.983.983 0 0 1 45 38a1 1 0 0 1-1-1 .974.974 0 0 1 .345-.744 1 1 0 0 0 0-1.509A.991.991 0 0 1 44 34a1 1 0 0 1 1-1 1 1 0 0 0 1-1 1 1 0 0 1 1-1 .987.987 0 0 1 .664.262 1 1 0 0 0 1.233.083 2.015 2.015 0 0 1 2.788.59 1 1 0 0 0 1.338.335A1.966 1.966 0 0 1 54 32a2 2 0 0 1 2 2 1.974 1.974 0 0 1-.685 1.492 1 1 0 0 0-.336.669A1.987 1.987 0 0 1 54 37.726v-2a1 1 0 0 0-1.5-.865 1.035 1.035 0 0 1-1.174-.129.975.975 0 0 0-.742-.266 1 1 0 0 0-.7.354.482.482 0 0 1-.6.122 1 1 0 0 0-1.369.473A1 1 0 0 1 47 36a1 1 0 0 0-1 1v.937a.98.98 0 0 0-.663-.003ZM48 39v-1.173a3.019 3.019 0 0 0 1.242-.841 2.459 2.459 0 0 0 1.447-.291A2.962 2.962 0 0 0 52 37v2a2 2 0 0 1-4 0Zm8.858 5.864a5 5 0 0 0-3.525-3.664 3.961 3.961 0 0 0 .561-1.319 4.019 4.019 0 0 0 3.026-3.168A3.987 3.987 0 0 0 54 30a3.836 3.836 0 0 0-1.169.181 4.046 4.046 0 0 0-4.442-.835A2.971 2.971 0 0 0 47 29a3 3 0 0 0-2.871 2.129A3 3 0 0 0 42 34a2.971 2.971 0 0 0 .408 1.5 2.992 2.992 0 0 0 2.943 4.479 3.987 3.987 0 0 0 .985.617 4.126 4.126 0 0 0 .323.6 4.99 4.99 0 0 0-2.47 1.585l-10.42-10.42 24.5-10.05A27.939 27.939 0 0 1 56.86 44.87ZM39 16h6v3a3 3 0 0 1-6 0Zm.171-2a3 3 0 0 1 5.658 0ZM40 24h4a2.964 2.964 0 0 1 2.277 1.062L37 28.868V27a3 3 0 0 1 3-3Zm17.5-3.543-9.325 3.826a4.928 4.928 0 0 0-2.459-1.969A4.964 4.964 0 0 0 47 19v-4a5 5 0 0 0-10 0v4a4.964 4.964 0 0 0 1.29 3.321A4.993 4.993 0 0 0 35 27v2.688l-2 .821V4.025a28.035 28.035 0 0 1 24.5 16.432ZM31 4.025V31h-3v-1a4.993 4.993 0 0 0-3.29-4.679A4.964 4.964 0 0 0 26 22v-4a5.006 5.006 0 0 0-5-5h-4a1 1 0 0 0-1 1v8a4.964 4.964 0 0 0 1.29 3.321A4.993 4.993 0 0 0 14 30v1H4.025A28.027 28.027 0 0 1 31 4.025ZM18 19h6v3a3 3 0 0 1-6 0Zm0-2v-2h3a3.006 3.006 0 0 1 2.829 2Zm1 10h4a3 3 0 0 1 3 3v1H16v-1a3 3 0 0 1 3-3ZM4.025 33h27.561l19.48 19.48A27.9 27.9 0 0 1 35 59.837V46a9 9 0 0 0-18 0v9.625A28 28 0 0 1 4.025 33ZM23 47v-1a2 2 0 0 1 1.638-1.967A7.759 7.759 0 0 0 29 45.957V47a3 3 0 0 1-6 0Zm7-3h-.171a5.789 5.789 0 0 1-4.122-1.707A1 1 0 0 0 25 42a4 4 0 0 0-4 4v1a4.956 4.956 0 0 0 1.222 3.238A7 7 0 0 0 19 52.11V46a7 7 0 0 1 14 0v6.11a7 7 0 0 0-3.222-1.872A4.956 4.956 0 0 0 31 47v-2a1 1 0 0 0-1-1ZM19.02 56.8A5 5 0 0 1 24 52h4a5.006 5.006 0 0 1 5 5v2.975c-.333.011-.665.025-1 .025a27.815 27.815 0 0 1-12.98-3.2Z" data-name="Stroke Close copy"/></svg>